# xmcd CD database file
#
# Track frame offsets:
#	200
#	13100
#	39397
#	50675
#	63787
#	74402
#	86522
#	110417
#	123415
#	134820
#	150437
#	163032
#
# Disc length: 2320 seconds
#
# Revision: 2
# Processed by: cddbd v1.5.1PL0 Copyright (c) Steve Scherf et al.
# Submitted via: CDex 1.51
#
DISCID=a1090e0c
DTITLE=Ruby Andrews - Casanova (Your Playing Days Are Over)
DYEAR=1900
DGENRE=Soul
TTITLE0=Casanova (Your Playing Days Are Over)
TTITLE1=Everybody Saw You
TTITLE2=Help Yourself Lover
TTITLE3=I Guess That Don't Make Me A Loser
TTITLE4=Gotta Break Away
TTITLE5=You Made A Believer Out of Me
TTITLE6=Casanova 70
TTITLE7=Can You Get Away
TTITLE8=You Can Run, But You Can't Hide
TTITLE9=Uh Uh Boy, That's a No No
TTITLE10=Since I Found Out
TTITLE11=Tit for Tat
EXTD=
EXTT0=
EXTT1=
EXTT2=
EXTT3=
EXTT4=
EXTT5=
EXTT6=
EXTT7=
EXTT8=
EXTT9=
EXTT10=
EXTT11=
PLAYORDER=
